<?xml version="1.0" standalone="no"?>
<!DOCTYPE svg PUBLIC "-//W3C//DTD SVG 20010904//EN"
 "http://www.w3.org/TR/2001/REC-SVG-20010904/DTD/svg10.dtd">
<svg version="1.0" xmlns="http://www.w3.org/2000/svg"
 width="1280.000000pt" height="1280.000000pt" viewBox="0 0 1280.000000 1280.000000"
 preserveAspectRatio="xMidYMid meet">
<metadata>
Created by potrace 1.15, written by Peter Selinger 2001-2017
</metadata>
<g transform="translate(0.000000,1280.000000) scale(0.100000,-0.100000)"
fill="#000000" stroke="none">
<path d="M8283 9700 c-204 -21 -425 -77 -628 -157 -296 -117 -495 -234 -876
-512 -17 -12 -26 -8 -91 42 -171 129 -249 167 -728 350 -529 202 -572 212
-880 211 -224 0 -354 -17 -576 -74 -309 -80 -694 -268 -960 -469 l-42 -31 -3
79 c-6 115 -28 142 -204 253 -305 192 -320 200 -372 201 -38 1 -217 -55 -868
-272 -512 -170 -832 -282 -851 -296 -73 -55 -80 -131 -30 -312 31 -116 38
-130 142 -293 60 -94 126 -191 147 -215 56 -65 89 -73 322 -79 230 -6 254 -10
260 -40 2 -11 9 -214 15 -451 5 -236 12 -486 15 -555 3 -69 7 -215 10 -325 5
-206 24 -864 50 -1760 17 -614 14 -648 -72 -763 -71 -95 -263 -165 -522 -192
-130 -13 -178 -37 -212 -106 -21 -44 -22 -54 -16 -215 l6 -169 116 -417 c64
-230 123 -429 130 -443 31 -60 92 -90 184 -90 39 0 303 18 588 40 285 22 847
65 1248 95 402 30 744 58 760 61 48 9 103 51 126 96 28 54 32 119 22 303 l-9
150 -243 385 c-134 212 -251 393 -260 404 -38 44 -69 51 -228 51 -84 1 -154 3
-156 6 -2 2 -12 425 -21 939 -10 514 -24 1239 -31 1610 -7 371 -9 682 -5 690
17 32 370 369 480 459 315 257 594 395 935 461 133 25 352 44 420 35 l55 -6
40 -82 c76 -157 72 -108 81 -1017 3 -448 7 -1225 8 -1725 1 -779 -1 -919 -14
-968 -51 -198 -184 -282 -508 -320 -99 -12 -122 -19 -152 -41 -66 -50 -70 -69
-67 -270 2 -135 6 -185 18 -207 17 -35 501 -725 551 -787 48 -58 83 -75 162
-74 36 1 478 33 981 72 503 38 1014 77 1135 86 121 9 238 20 260 26 50 13 109
71 124 123 6 22 11 116 11 208 0 137 -3 176 -17 204 -10 22 -152 162 -376 371
-197 185 -371 345 -384 356 l-25 19 6 1116 c3 614 9 1360 12 1659 l6 543 127
116 c438 401 868 654 1238 728 119 24 122 23 166 -65 71 -142 72 -156 70 -600
-1 -217 -12 -966 -23 -1665 -22 -1338 -23 -1357 -70 -1457 -66 -142 -212 -220
-458 -248 -99 -11 -134 -24 -168 -62 -37 -40 -41 -59 -49 -224 -6 -149 -5
-166 13 -207 17 -37 87 -104 418 -399 506 -449 471 -421 542 -426 44 -3 1888
132 2237 164 72 7 127 28 157 61 39 42 46 84 50 269 3 180 3 180 -23 220 -21
31 -104 90 -393 278 l-366 239 5 136 c3 75 15 449 25 831 23 804 57 1960 69
2365 9 300 3 443 -24 576 -100 490 -465 922 -925 1096 -66 25 -887 233 -1100
279 -130 28 -372 39 -517 24z"/>
</g>
</svg>
