<?xml version="1.0" standalone="no"?>
<!DOCTYPE svg PUBLIC "-//W3C//DTD SVG 20010904//EN"
 "http://www.w3.org/TR/2001/REC-SVG-20010904/DTD/svg10.dtd">
<svg version="1.0" xmlns="http://www.w3.org/2000/svg"
 width="1280.000000pt" height="1280.000000pt" viewBox="0 0 1280.000000 1280.000000"
 preserveAspectRatio="xMidYMid meet">
<metadata>
Created by potrace 1.15, written by Peter Selinger 2001-2017
</metadata>
<g transform="translate(0.000000,1280.000000) scale(0.100000,-0.100000)"
fill="#000000" stroke="none">
<path d="M8005 11033 c-373 -47 -808 -229 -1240 -516 -164 -109 -488 -345
-635 -461 l-145 -115 -5 312 c-5 301 -6 314 -29 364 -26 58 -94 127 -145 148
-19 8 -233 53 -476 100 -321 63 -453 85 -479 80 -20 -4 -335 -126 -701 -272
-366 -145 -846 -336 -1067 -424 -221 -88 -419 -173 -441 -189 -56 -40 -92
-117 -92 -194 0 -51 10 -86 59 -208 92 -232 70 -207 400 -442 159 -114 309
-215 333 -226 37 -17 66 -20 195 -20 l151 0 6 -102 c3 -57 10 -404 16 -773 6
-368 19 -1156 30 -1750 45 -2521 44 -2460 31 -2536 -50 -279 -295 -431 -773
-478 -115 -11 -171 -34 -217 -86 -60 -69 -63 -86 -62 -330 1 -121 4 -242 7
-270 4 -31 105 -299 267 -704 228 -574 265 -660 299 -697 56 -60 112 -84 199
-84 39 0 373 27 743 60 369 33 898 80 1176 105 1508 134 1509 134 1551 145 60
17 120 69 154 135 l30 59 0 296 0 295 -25 48 c-21 39 -802 985 -950 1150 -44
50 -106 86 -146 87 -20 0 -21 6 -27 213 -4 116 -7 997 -8 1956 l-1 1745 209
184 c828 734 1196 1019 1676 1295 l148 85 82 -28 c653 -224 983 -332 1056
-345 231 -40 502 4 711 116 260 140 486 389 595 654 55 133 70 220 69 385 -1
122 -6 161 -28 245 -83 316 -334 612 -640 756 -150 70 -219 82 -932 164 -640
73 -801 84 -929 68z"/>
</g>
</svg>
